<svg width="45" height="46" viewBox="0 0 45 46" fill="none" xmlns="http://www.w3.org/2000/svg">
<path d="M0 23C0 10.5736 10.0736 0.5 22.5 0.5C34.9264 0.5 45 10.5736 45 23C45 35.4264 34.9264 45.5 22.5 45.5C10.0736 45.5 0 35.4264 0 23Z" fill="#FF2D55" fill-opacity="0.5"/>
<path d="M10.8333 35.5V10.5H14V35.5H10.8333ZM21.3203 35.5V10.5H28.3203C29.9129 10.5 31.1722 10.8148 32.0981 11.4444C33.0425 12.0741 33.7185 12.8426 34.1259 13.75C34.5333 14.6389 34.737 15.4815 34.737 16.2778C34.737 17.1852 34.524 18.0185 34.0981 18.7778C33.6907 19.5185 33.1351 20.1296 32.4314 20.6111C33.7833 21.2222 34.8759 22.1389 35.7092 23.3611C36.5611 24.5833 36.987 25.9722 36.987 27.5278C36.987 28.8426 36.6536 30.1111 35.987 31.3333C35.3388 32.5556 34.3666 33.5556 33.0703 34.3333C31.7925 35.1111 30.2092 35.5 28.3203 35.5H21.3203ZM24.487 32.6667H28.0981C29.4685 32.6667 30.5703 32.3981 31.4036 31.8611C32.237 31.3241 32.8481 30.6481 33.237 29.8333C33.6259 29.0185 33.8203 28.213 33.8203 27.4167C33.8203 26.6389 33.6351 25.8426 33.2648 25.0278C32.8944 24.213 32.2925 23.537 31.4592 23C30.6259 22.4444 29.5055 22.1667 28.0981 22.1667H24.487V32.6667ZM24.487 19.5H28.0703C29.1629 19.5 30.0425 19.2407 30.7092 18.7222C31.3944 18.1852 31.737 17.4259 31.737 16.4444C31.737 15.4259 31.4036 14.6574 30.737 14.1389C30.0703 13.6019 29.2185 13.3333 28.1814 13.3333H24.487V19.5Z" fill="#FF2D55"/>
</svg>
